<svg xmlns="http://www.w3.org/2000/svg" width="68.21" height="111.979" viewBox="0 0 68.21 111.979">
  <path id="Контур_27" data-name="Контур 27" d="M5155.509,4532.95c.27-.54.522-1.089.763-1.644.086-.2.162-.4.245-.6.149-.363.3-.726.433-1.094.089-.238.17-.481.253-.721.117-.338.232-.677.339-1.02.079-.256.153-.514.227-.772q.144-.507.275-1.019c.066-.262.129-.525.188-.79.079-.348.151-.7.219-1.051.051-.262.1-.524.146-.787.062-.37.115-.743.165-1.117.034-.251.071-.5.1-.752.046-.417.08-.837.111-1.259.016-.214.038-.426.051-.64.035-.638.056-1.28.056-1.927a34.1,34.1,0,0,0-67.817-5.194,34.3,34.3,0,0,0-.393,5.194c0,.647.021,1.289.056,1.927.013.214.035.426.051.64.032.422.065.842.112,1.259.028.252.065.5.1.752.05.374.1.747.165,1.117.045.263.1.525.146.787.068.352.14.7.219,1.051.06.265.123.528.188.79q.131.513.275,1.019c.074.258.148.516.227.772.107.343.222.682.339,1.02.083.24.164.483.253.721.136.368.284.731.434,1.094.082.2.158.4.244.6q.361.832.763,1.644l30.534,62.682Z" transform="translate(-5090.87 -4483.653)" fill="#a46a37"/>
</svg>
